<svg width="81" height="72" viewBox="0 0 81 72" fill="none" xmlns="http://www.w3.org/2000/svg">
<circle cx="68" cy="43" r="13" fill="#C4D5F5"/>
<circle cx="50" cy="30" r="23" fill="#BCE6DA"/>
<g clip-path="url(#clip0_200_376)">
<path d="M62.8475 3.21455C62.8475 1.44357 61.4039 0 59.6478 0H3.19967C1.44357 0 0 1.44357 0 3.21455C0 4.98553 1.38404 6.35469 3.09549 6.41422C2.99132 6.86069 2.91691 7.33692 2.91691 7.82803V37.6519C2.91691 38.143 2.97644 38.6044 3.09549 39.0657C1.38404 39.1253 0 40.5391 0 42.2654C0 43.9917 1.44357 45.48 3.19967 45.48H28.544C28.5143 45.6883 28.4845 45.8967 28.4845 46.105V53.7396C28.3208 53.8289 28.1869 53.9479 28.0529 54.0819L17.174 65.4072C16.6681 65.943 16.4448 66.7168 16.5788 67.5205C16.6978 68.2497 17.0848 68.9492 17.6652 69.5147C18.2456 70.0802 18.9748 70.4374 19.6891 70.5267C20.5077 70.6309 21.2666 70.3927 21.7726 69.857L28.4696 62.8921V68.6218C28.4696 70.4672 29.9132 71.9703 31.6693 71.9703C33.4254 71.9703 34.869 70.4672 34.869 68.6218V62.8624L42.5482 70.2737C43.0839 70.7946 43.8727 71.0327 44.6763 70.9136C45.4204 70.8094 46.1348 70.4225 46.7003 69.8272C47.2658 69.2468 47.623 68.5027 47.6974 67.7586C47.7867 66.9401 47.5188 66.1662 46.9831 65.6453L35.1517 54.2307C35.0624 54.1414 34.9731 54.067 34.869 53.9926V46.0752C34.869 45.852 34.8392 45.6437 34.8094 45.4502H59.618C61.389 45.4502 62.8177 44.0066 62.8177 42.2356C62.8177 40.9111 62.0141 39.7801 60.883 39.289C61.0319 38.7532 61.1211 38.2026 61.1211 37.6222V7.82803C61.1211 7.24763 61.0319 6.69698 60.883 6.16122C62.0141 5.67011 62.8177 4.53907 62.8177 3.21455H62.8475ZM45.7627 66.9847C45.9413 67.1633 45.9413 67.4461 45.9264 67.5949C45.8967 67.9372 45.7032 68.3092 45.4204 68.592C45.1377 68.8896 44.7805 69.0831 44.4382 69.1278C44.2894 69.1426 44.0066 69.1575 43.8132 68.9789L34.6011 60.0943C34.3332 59.8413 33.9612 59.7669 33.6189 59.9157C33.2915 60.0645 33.0682 60.3919 33.0682 60.7491V68.6366C33.0682 69.4849 32.4432 70.1844 31.6693 70.1844C30.8954 70.1844 30.2704 69.4998 30.2704 68.6366V60.6598C30.2704 60.2877 30.0471 59.9603 29.7048 59.8264C29.6007 59.7817 29.4816 59.7669 29.3626 59.7669C29.1244 59.7669 28.8863 59.871 28.7077 60.0496L20.463 68.6366C20.3142 68.7855 20.0463 68.7855 19.9124 68.7706C19.5701 68.7259 19.2129 68.5325 18.9004 68.2497C18.6027 67.9669 18.3944 67.5949 18.3349 67.2675C18.3051 67.1187 18.2902 66.8657 18.439 66.702L29.3179 55.3766C29.3179 55.3766 29.4519 55.2873 29.556 55.2576C29.9727 55.1683 30.2555 54.7962 30.2555 54.3795V46.1348C30.2555 45.9115 30.3001 45.7032 30.3745 45.5097H32.9045C32.9789 45.7032 33.0236 45.9115 33.0236 46.1348V54.6027C33.0236 55.0046 33.2766 55.3469 33.6486 55.4659C33.7379 55.4957 33.8123 55.5403 33.857 55.585L45.6883 66.9996L45.7627 66.9847ZM61.0467 42.2654C61.0467 43.0393 60.4217 43.6643 59.6478 43.6643H3.19967C2.4258 43.6643 1.80074 43.0393 1.80074 42.2654C1.80074 41.4915 2.4258 40.8665 3.19967 40.8665H59.6329C60.4068 40.8665 61.0318 41.4915 61.0318 42.2654H61.0467ZM5.64035 37.6519V7.82803C5.64035 7.32204 5.75941 6.86069 5.96776 6.4291H58.1149C58.3233 6.86069 58.4424 7.32204 58.4424 7.82803V37.6519C58.4424 38.1579 58.3233 38.6193 58.1149 39.0509H5.96776C5.75941 38.6193 5.64035 38.1579 5.64035 37.6519ZM59.6478 4.61348H3.19967C2.4258 4.61348 1.80074 3.98843 1.80074 3.21455C1.80074 2.44068 2.4258 1.81563 3.19967 1.81563H59.6329C60.4068 1.81563 61.0318 2.44068 61.0318 3.21455C61.0318 3.98843 60.4068 4.61348 59.6329 4.61348H59.6478Z" fill="#2C55A5"/>
<path d="M51.1055 11.7721C50.5102 11.3256 49.6619 11.4447 49.2005 12.04L40.9856 22.9784L30.0323 17.4868C29.4221 17.1743 28.678 17.3827 28.291 17.9482L20.716 29.333H12.5457C11.8016 29.333 11.1914 29.9432 11.1914 30.6873C11.1914 31.4314 11.8016 32.0416 12.5457 32.0416H21.4452C21.8917 32.0416 22.3233 31.8184 22.5763 31.4314L29.8834 20.4335L40.7772 25.8953C41.3576 26.1929 42.072 26.0143 42.4738 25.4934L51.3733 13.6621C51.8198 13.0668 51.7007 12.2037 51.1055 11.7572V11.7721Z" fill="#2C55A5"/>
</g>
<defs>
<clipPath id="clip0_200_376">
<rect width="62.8475" height="72" fill="white"/>
</clipPath>
</defs>
</svg>
