<svg width="89" height="72" viewBox="0 0 89 72" fill="none" xmlns="http://www.w3.org/2000/svg">
<circle cx="76" cy="47" r="13" fill="#C4D5F5"/>
<circle cx="58" cy="34" r="23" fill="#BCE6DA"/>
<g clip-path="url(#clip0_200_375)">
<path d="M20.6134 72C29.6048 72 37.2552 66.2063 40.0747 58.1433C41.4672 58.1948 42.7395 58.212 43.7882 58.212C50.1148 58.212 64.8311 57.5415 64.8311 51.318C64.8311 51.3009 64.8311 51.2837 64.8311 51.2665C64.8311 51.2665 64.8311 51.2321 64.8311 51.2149V42.9112C64.8655 42.7221 64.8827 42.5329 64.8827 42.3438C64.8827 42.1547 64.8655 41.9828 64.8311 41.8109V34.9857C64.8655 34.7966 64.8827 34.6074 64.8827 34.4183C64.8827 34.2292 64.8655 34.0573 64.8311 33.8854V26.2865C64.8655 26.0974 64.8827 25.9083 64.8827 25.7192C64.8827 25.3925 64.8139 25.0831 64.7108 24.7908C64.7796 24.5158 64.8139 24.2407 64.8139 23.9312C64.8139 23.914 64.8139 23.8968 64.8139 23.8797C64.8139 23.8625 64.8139 23.8453 64.8139 23.8281V15.5244C64.8483 15.3352 64.8655 15.1461 64.8655 14.957C64.8655 14.7679 64.8483 14.596 64.8139 14.4241V6.82521C64.8483 6.6361 64.8655 6.44699 64.8655 6.25788C64.8655 5.91404 64.7968 5.60458 64.6936 5.29513C64.5045 4.65903 64.1091 4.12607 63.5761 3.78223C59.2953 0.120344 45.5933 0 43.771 0C41.9486 0 28.2466 0.120344 23.9486 3.78223C23.4157 4.12607 23.0203 4.64183 22.8311 5.29513C22.728 5.60458 22.6592 5.91404 22.6592 6.25788C22.6592 6.44699 22.6764 6.6361 22.7108 6.82521V14.4241C22.6764 14.596 22.6592 14.7679 22.6592 14.957C22.6592 15.1461 22.6764 15.3352 22.7108 15.5244V23.8281C22.7108 23.8281 22.7108 23.8625 22.7108 23.8797C22.7108 23.8797 22.7108 23.914 22.7108 23.9312C22.7108 24.2235 22.7624 24.5158 22.814 24.7908C22.7108 25.0831 22.642 25.3925 22.642 25.7192C22.642 25.9083 22.6592 26.0974 22.6936 26.2865V30.7908C22.0059 30.7221 21.3011 30.6877 20.579 30.6877C9.2151 30.6877 -0.0341797 39.9542 -0.0341797 51.3524C-0.0341797 62.7507 9.2151 72.0172 20.579 72.0172L20.6134 72ZM62.4243 51.1633C62.4243 51.1633 62.4243 51.2665 62.4243 51.318C62.4243 51.3352 62.4243 51.3696 62.4243 51.3868C62.3039 53.7077 53.983 55.5817 43.771 55.5817C42.7566 55.5817 41.7595 55.5645 40.7968 55.5301C41.0718 54.1719 41.2266 52.7794 41.2266 51.3524C41.2266 50.9914 41.2266 50.6304 41.1922 50.2693C42.1377 50.2865 43.0145 50.3037 43.771 50.3037C48.516 50.3037 57.9715 49.9255 62.4243 47.1232V51.1805V51.1633ZM62.4243 43.2206C62.4243 43.2206 62.4243 43.3238 62.4243 43.3754C62.4243 43.3925 62.4243 43.4269 62.4243 43.4441C62.3039 45.765 53.983 47.639 43.771 47.639C42.791 47.639 41.8283 47.6218 40.8655 47.5874C40.4701 45.404 39.7137 43.3238 38.6821 41.4327C40.6077 41.553 42.3784 41.5874 43.7538 41.5874C48.4988 41.5874 57.9544 41.2092 62.4071 38.4069V43.2378L62.4243 43.2206ZM62.4243 23.7593C62.4243 23.7593 62.4243 23.8625 62.4243 23.914C62.4243 23.9312 62.4243 23.9656 62.4243 23.9828C62.3039 26.3037 53.983 28.1776 43.771 28.1776C33.5589 28.1776 25.238 26.3037 25.1349 23.9828C25.1349 23.9312 25.1349 23.8968 25.1349 23.8453C25.1349 23.8281 25.1349 23.7937 25.1349 23.7593V18.9112C29.5704 21.7307 39.026 22.1089 43.7882 22.1089C48.5503 22.1089 57.9887 21.7307 62.4415 18.9284V23.7593H62.4243ZM43.771 3.04298C54.3612 3.04298 60.9114 5.02006 62.0289 6.24069C60.9286 7.47851 54.3612 9.43839 43.771 9.43839C33.1807 9.43839 26.6306 7.46132 25.5131 6.24069C26.6134 5.02006 33.1807 3.04298 43.771 3.04298ZM43.771 12.4986C45.4386 12.4986 57.2151 12.3954 62.4243 9.50716V15.0602C62.4243 15.0602 62.4243 15.1633 62.4243 15.2149C62.4243 15.2321 62.4243 15.2665 62.4243 15.2837C62.3039 17.6046 53.983 19.4785 43.771 19.4785C33.5589 19.4785 25.238 17.6046 25.1349 15.2837C25.1349 15.2321 25.1349 15.1977 25.1349 15.1461C25.1349 15.1117 25.1349 15.0946 25.1349 15.0602V9.50716C30.3268 12.3954 42.1034 12.4986 43.7882 12.4986H43.771ZM43.771 31.9599C45.4386 31.9599 57.2151 31.8567 62.4243 28.9685V34.5215C62.4243 34.5215 62.4243 34.6246 62.4243 34.6762C62.4243 34.6934 62.4243 34.7278 62.4243 34.745C62.3039 37.0659 53.983 38.9398 43.771 38.9398C41.3125 38.9398 38.9916 38.8367 36.8426 38.6304C33.9544 34.9341 29.8455 32.2521 25.1177 31.1862V28.9685C30.3097 31.8567 42.0862 31.9599 43.771 31.9599ZM20.6134 33.318C30.516 33.318 38.579 41.3983 38.579 51.3352C38.579 61.2722 30.516 69.3524 20.6134 69.3524C10.7108 69.3524 2.64777 61.2722 2.64777 51.3352C2.64777 41.3983 10.7108 33.318 20.6134 33.318Z" fill="#2C55A5"/>
<path d="M20.6133 65.2612C28.2637 65.2612 34.5044 59.0205 34.5044 51.3357C34.5044 43.6508 28.2809 37.4102 20.6133 37.4102C12.9457 37.4102 6.72217 43.6508 6.72217 51.3357C6.72217 59.0205 12.9457 65.2612 20.6133 65.2612ZM20.6133 39.1809C27.301 39.1809 32.7336 44.6308 32.7336 51.3357C32.7336 58.0405 27.301 63.4904 20.6133 63.4904C13.9256 63.4904 8.49294 58.0405 8.49294 51.3357C8.49294 44.6308 13.9256 39.1809 20.6133 39.1809Z" fill="#2C55A5"/>
<path d="M16.2463 57.8685C16.7277 58.2123 17.3294 58.4874 18.0343 58.6937C18.275 58.7625 18.5157 58.8312 18.7736 58.8656V60.1722C18.7736 60.6536 19.169 61.049 19.6504 61.049H21.9025C22.3839 61.049 22.7793 60.6536 22.7793 60.1722V58.6249C23.5873 58.3155 24.2922 57.8513 24.8251 57.2324C25.5644 56.3728 25.977 55.2725 25.977 54.1378C25.977 53.5361 25.891 52.9688 25.7019 52.453C25.4269 51.6794 24.9455 51.0089 24.2578 50.4415C23.6905 49.9602 22.9856 49.5647 22.04 49.1693C22.0057 49.1693 21.9713 49.1349 21.9541 49.1349C21.0085 48.7395 20.6303 48.4988 20.4584 48.3613C20.4068 48.3097 20.3552 48.2582 20.338 48.2238C20.338 48.2238 20.338 48.1894 20.338 48.1034C20.338 48.0518 20.338 47.9659 20.4068 47.9143C20.5271 47.794 20.7678 47.7424 21.1117 47.7424C21.5243 47.7424 21.9197 47.8112 22.2807 47.9315C22.573 48.0347 22.7965 48.155 22.9856 48.2582L23.4842 48.5504C23.7077 48.688 23.9827 48.7051 24.2234 48.6192C24.4641 48.5332 24.6532 48.3441 24.7564 48.1034L25.616 45.8341C25.7707 45.4387 25.616 44.9745 25.2378 44.7682L24.8767 44.5619C24.2922 44.218 23.6217 43.9602 22.9168 43.8226V42.5848C22.9168 42.1034 22.5214 41.708 22.04 41.708H19.8051C19.3237 41.708 18.9283 42.1034 18.9283 42.5848V44.0805C18.2062 44.3556 17.5701 44.7682 17.0716 45.3011C16.2979 46.1263 15.8681 47.2266 15.8681 48.3957C15.8681 49.0146 15.9885 49.5991 16.212 50.1149C16.5214 50.837 17.0716 51.4731 17.8108 52.006C18.3953 52.4186 19.1002 52.7796 20.063 53.1579C20.8538 53.4673 21.1804 53.7424 21.3008 53.8627C21.4039 53.9659 21.4383 54.0175 21.4555 54.069C21.4727 54.1206 21.4899 54.1722 21.4899 54.2925C21.4899 54.4645 21.4383 54.5676 21.318 54.6708C21.1289 54.8255 20.8194 54.9115 20.4412 54.9115C19.5644 54.9458 18.7564 54.5848 18.2922 54.2753L17.7764 53.9315C17.5529 53.7768 17.2779 53.7424 17.02 53.8284C16.7621 53.9143 16.5558 54.1206 16.4698 54.3613L15.6446 56.665C15.5071 57.0433 15.6446 57.4559 15.9541 57.6794L16.2635 57.9029L16.2463 57.8685ZM17.742 55.9774C18.5501 56.4072 19.53 56.665 20.424 56.665C21.2492 56.665 21.9197 56.4415 22.4355 56.0117C22.9512 55.5647 23.2263 54.9802 23.2435 54.2925C23.2435 53.9659 23.1919 53.6564 23.0716 53.3814C22.9512 53.1063 22.7793 52.8656 22.5558 52.6249C22.1604 52.2123 21.5587 51.8513 20.7163 51.5246C19.891 51.198 19.2893 50.8885 18.8423 50.5619C18.3438 50.218 18.0171 49.8226 17.828 49.3928C17.6905 49.0834 17.6217 48.7395 17.6217 48.3785C17.6217 47.6564 17.8796 47.0031 18.3438 46.5046C18.7564 46.0576 19.3237 45.7481 19.9942 45.5762C20.3896 45.4731 20.6647 45.1292 20.6647 44.7166V43.4616H21.1289V44.5791C21.1289 45.0261 21.4727 45.4215 21.9197 45.4559C22.5558 45.5246 23.1403 45.6794 23.6561 45.9372L23.4326 46.539C23.2607 46.453 23.0544 46.367 22.8137 46.2811C22.2807 46.092 21.6962 46.006 21.0773 46.006C20.2521 46.006 19.616 46.2295 19.1518 46.6765C18.7564 47.0547 18.5501 47.5705 18.5501 48.1378C18.5501 48.4816 18.6016 48.7567 18.722 48.9974C18.8423 49.2553 19.0143 49.4788 19.2549 49.7023C19.6504 50.0461 20.2693 50.39 21.2836 50.8026C22.0744 51.1292 22.6418 51.4559 23.0888 51.8169C23.5186 52.1779 23.828 52.5905 23.9999 53.0547C24.1203 53.3814 24.1718 53.7424 24.1718 54.1378C24.1718 54.8599 23.914 55.5476 23.4498 56.0805C23.0028 56.5963 22.3839 56.9573 21.6446 57.1292C21.2492 57.2324 20.9741 57.5762 20.9741 57.9888V59.3126H20.4756V58.1264C20.4756 57.6622 20.1317 57.2839 19.6675 57.2496C19.2549 57.2152 18.8595 57.1292 18.4641 57.0261C18.0859 56.9057 17.742 56.7682 17.4498 56.6135L17.6733 55.9945L17.742 55.9774Z" fill="#2C55A5"/>
</g>
<defs>
<clipPath id="clip0_200_375">
<rect width="64.8825" height="72" fill="white"/>
</clipPath>
</defs>
</svg>
