<svg width="83" height="72" viewBox="0 0 83 72" fill="none" xmlns="http://www.w3.org/2000/svg">
<circle cx="70" cy="49" r="13" fill="#C4D5F5"/>
<circle cx="52" cy="36" r="23" fill="#D5EDE6"/>
<g clip-path="url(#clip0_200_374)">
<path d="M1.39131 63.052C2.49854 63.052 4.45864 63.3961 6.92747 64.0096L7.39131 64.1742C7.39131 64.1742 7.48109 64.2041 7.52597 64.2191C12.6731 65.4909 23.102 68.1243 37.6906 71.835L37.7953 71.865C37.7953 71.865 37.8552 71.865 37.8701 71.8799C38.2741 71.9547 38.6781 71.9996 39.0821 71.9996C39.7404 71.9996 40.4138 71.8799 41.102 71.6405C41.117 71.6405 41.1469 71.6405 41.1619 71.6106L41.3265 71.5508C41.4611 71.5059 41.5958 71.446 41.7155 71.3562L64.6831 54.7029C65.117 54.4635 65.521 54.1642 65.8951 53.8051C65.91 53.7901 65.9399 53.7602 65.9549 53.7453C66.9873 52.7128 67.5559 51.3662 67.5559 49.9298C67.5559 47.1318 65.4611 44.8276 62.6631 44.5433C62.1245 44.4385 61.6008 44.4236 60.9724 44.5133C60.718 44.5582 60.4936 44.6031 60.2841 44.663C60.0148 44.7378 59.7454 44.8575 59.4611 44.9921C59.3265 45.067 59.1769 45.1418 59.0422 45.2315C58.9973 45.2615 58.9524 45.2914 58.9075 45.3213L56.3788 47.1468L42.5384 56.1243C42.3589 56.1542 42.1345 56.1542 41.8651 56.1542C41.0422 55.9597 38.0946 55.1817 33.097 53.865L32.8726 53.8051C31.7504 53.4759 30.5983 53.1767 29.4911 52.9074C27.9499 52.5034 26.723 52.1742 26.2292 52.0395C25.526 51.5906 25.0921 50.8276 25.0921 50.0046C25.0921 48.8375 25.9 47.865 27.0372 47.6256H35.8502C37.9898 47.6256 39.7404 45.8749 39.7404 43.7353C39.7404 41.5956 37.9898 39.845 35.8502 39.845H26.319C25.0921 39.8151 23.5509 39.7852 21.6507 39.7852C17.1469 39.7852 14.0048 41.5507 11.521 43.2864C10.9075 43.7054 10.324 44.1542 9.74044 44.5881C7.04717 46.5782 4.72797 48.2989 1.3165 48.2989C0.88258 48.2989 0.463628 48.5084 0.209264 48.8675C-0.000212647 49.1667 -0.0899882 49.5408 -0.0301378 49.8849V60.5981C-0.0451004 60.6879 -0.0301378 60.7627 -0.0301378 60.8525V61.6754C-0.0301378 62.4236 0.583329 63.037 1.33146 63.037L1.39131 63.052ZM2.75291 59.1916V50.9622C6.32897 50.5582 8.91749 48.643 11.4312 46.7877C11.9998 46.3687 12.5684 45.9497 13.1519 45.5308C15.3963 43.9747 17.9848 42.5233 21.7255 42.5233C23.5958 42.5233 25.107 42.5383 26.3489 42.5832H35.91C36.5534 42.5832 37.0621 43.1069 37.0621 43.7353C37.0621 44.3637 36.5384 44.8874 35.91 44.8874H26.9624C26.9624 44.8874 26.8128 44.8874 26.7379 44.9024C24.2242 45.3213 22.4138 47.461 22.4138 49.9896C22.4138 51.86 23.4462 53.5807 25.0921 54.4934C25.1818 54.5532 25.2866 54.5832 25.3913 54.6131C25.6756 54.6879 27.0372 55.047 28.8776 55.5408C29.9699 55.8101 31.0771 56.0944 32.1843 56.4236L32.4387 56.4834C37.8252 57.9049 40.7579 58.668 41.4013 58.8325C41.4761 58.8475 41.5659 58.8625 41.6407 58.8625C42.329 58.8924 42.9125 58.8625 43.4212 58.7278C43.5709 58.6979 43.7055 58.638 43.8402 58.5483L57.92 49.4211C57.92 49.4211 57.9649 49.3911 57.9798 49.3762L60.4636 47.5807C60.4636 47.5807 60.4936 47.5807 60.4936 47.5657C60.5684 47.5208 60.6432 47.4759 60.718 47.431C60.8676 47.3562 60.9873 47.3113 61.0921 47.2665C61.1968 47.2365 61.3015 47.2216 61.4063 47.2066C61.6756 47.1617 61.9449 47.1617 62.2143 47.2216C62.2741 47.2216 62.319 47.2365 62.3788 47.2515C63.7853 47.3712 64.8477 48.5233 64.8477 49.9148C64.8477 50.6181 64.5634 51.2914 64.0397 51.8001C64.0397 51.8001 64.0247 51.8151 64.0098 51.83C63.8003 52.0246 63.5908 52.1891 63.3514 52.3089C63.2916 52.3388 63.2317 52.3837 63.1719 52.4136L62.1993 53.1168L40.2791 69.0071C40.2791 69.0071 40.2043 69.037 40.1744 69.052C39.5459 69.2615 39.0222 69.3064 38.4237 69.1867H38.3489C23.8202 65.4759 13.4212 62.8425 8.22921 61.5707L7.78034 61.4061C7.78034 61.4061 7.69056 61.3762 7.63071 61.3612C5.64069 60.8675 3.9948 60.5383 2.70802 60.3887V59.1767L2.75291 59.1916Z" fill="#2C55A5"/>
<path d="M26.2295 36.9875H45.0824C47.4315 36.9875 49.3318 35.0873 49.3318 32.7381V23.4314L49.9602 24.0748C50.4989 24.6135 51.3667 24.6135 51.8904 24.0748L53.5812 22.384C55.3168 20.6484 55.3168 17.8354 53.5812 16.0997L40.5787 3.09726C40.5787 3.09726 40.5188 3.02244 40.4889 2.99252L38.7981 1.30175C37.9602 0.46384 36.838 0 35.656 0C34.4739 0 33.3517 0.46384 32.5138 1.30175L30.823 2.99252C30.823 2.99252 30.7632 3.05237 30.7333 3.09726L17.7158 16.0997C15.9801 17.8354 15.9801 20.6484 17.7158 22.384L19.4066 24.0748C19.6759 24.3441 20.02 24.4788 20.3791 24.4788C20.7383 24.4788 21.0824 24.3441 21.3517 24.0748L21.9801 23.4314V32.7381C21.9801 35.0873 23.8954 36.9875 26.2295 36.9875ZM38.9777 32.2444H32.3343V23.7007H38.9777V32.2444ZM46.5936 32.7381C46.5936 33.576 45.9053 34.2494 45.0824 34.2494H41.5662C41.6709 34.0548 41.7308 33.8454 41.7308 33.606V22.3242C41.7308 21.5761 41.1173 20.9626 40.3692 20.9626H30.9876C30.2395 20.9626 29.626 21.5761 29.626 22.3242V33.606C29.626 33.8304 29.6859 34.0548 29.7906 34.2494H26.2744C25.4365 34.2494 24.7632 33.576 24.7632 32.7381V20.6933L35.7008 9.75561L42.6884 16.7431L46.6385 20.6933V32.7381H46.5936ZM20.3791 21.1721L19.6609 20.4539C18.9876 19.7805 18.9876 18.7032 19.6609 18.0299L32.7532 4.92269C32.7532 4.92269 32.8131 4.86284 32.843 4.81795L34.429 3.23192C35.0724 2.58853 36.2096 2.58853 36.853 3.23192L38.439 4.81795C38.439 4.81795 38.4989 4.89277 38.5288 4.92269L51.636 18.0299C52.3093 18.7032 52.3093 19.7805 51.636 20.4539L50.9178 21.1721L36.6136 6.85286C36.3592 6.5985 36.0151 6.44887 35.641 6.44887C35.2669 6.44887 34.9378 6.5985 34.6684 6.85286L20.3642 21.1721H20.3791Z" fill="#2C55A5"/>
</g>
<defs>
<clipPath id="clip0_200_374">
<rect width="67.5711" height="72" fill="white"/>
</clipPath>
</defs>
</svg>
